<?xml version="1.0" encoding="utf-8"?>
<!-- Generator: Adobe Illustrator 24.0.0, SVG Export Plug-In . SVG Version: 6.00 Build 0)  -->
<svg version="1.1" xmlns="http://www.w3.org/2000/svg" xmlns:xlink="http://www.w3.org/1999/xlink" x="0px" y="0px"
	 viewBox="0 0 64 64" style="enable-background:new 0 0 64 64;" xml:space="preserve">
<style type="text/css">
	.st0{display:none;}
	.st1{display:inline;fill:#FF811C;}
	.st2{display:inline;fill:#FF811C;stroke:#FFFFFF;stroke-width:14.074;stroke-miterlimit:10;}
	.st3{display:inline;opacity:0.15;fill:#FFFFFF;}
	.st4{display:inline;fill:#1E252B;}
	.st5{display:inline;fill:#FFFFFF;}
	.st6{display:inline;fill:#2D2E82;}
	.st7{fill:#FF811C;stroke:#FFFFFF;stroke-width:14.074;stroke-miterlimit:10;}
	.st8{opacity:0.33;fill:#35A8E0;}
	.st9{display:inline;}
	.st10{fill:#FF811C;}
	.st11{fill:#FFFFFF;}
	.st12{display:inline;fill:#35A8E0;}
	.st13{display:inline;opacity:0.1;fill:#1D70B7;}
	.st14{opacity:0.41;fill:#FF811C;}
	.st15{opacity:0.15;fill:#FFFFFF;}
	.st16{display:none;fill:#FF811C;}
	.st17{opacity:0.1;fill:#FFFFFF;}
	.st18{fill:#1E252B;}
	.st19{display:none;fill:#FFFFFF;}
	.st20{font-family:'Rubik-Regular';}
	.st21{font-size:3.4352px;}
</style>
<g id="Camada_1" class="st0">
</g>
<g id="Camada_5" class="st0">
</g>
<g id="Camada_2" class="st0">
	<path class="st1" d="M2451.2-629.3c-0.1-0.7-0.2-1.4-0.2-2.1c-1.1-9.8-2.6-19.5-4.5-29.1c-0.7-3.4-1.4-6.7-2.2-10
		c-0.8-3.8-1.8-7.6-2.8-11.3c-8.5-32-21.5-62.8-39.8-91.3c-55.1-86.4-157.5-134.5-259.3-127.2c-3.7,0.3-7.5,0.6-11.2,1.1
		c-34,3.8-67.4,13.9-98,29.3c-192,96.2-247.4,331.7-341.3,505.7C1613.9-219.7,1499-21,1316.6-1.2c-180.7,19.6-249.2-193-308.1-321.7
		c-15.7-34.4-31.1-69-47.3-103.2c-12.2-26-24.5-52-37-77.7c-34.1-70.4-60.9-149.8-117.4-206.1c-30-30-66.4-43.7-102.9-43.5
		c-42.1,0.2-84.3,18.8-117.4,52.1c-62.9,63.2-85.2,154.3-115.7,235.3c-32.8,87.2-65.7,174.4-101.6,260.5
		C341-138,313.2-46.5,231.5-28.1c-20.9,4.6-43.3,1.4-63.4-6.3C66.1-73.7,12.6-189.5-35.2-279.6c-27.6-52-51.8-106-74.4-160.2
		c-21.4-51.4-41.9-104.1-74.5-149.8c-19.2-26.7-52.3-42.3-85.4-41.3c-59.1,1.6-99.8,51.8-113.4,105.5
		c-15.7,62.1-2.9,128.8,17.6,188.2c13.9,40,27.7,80.1,40.3,120.6c23.4,76.1,46.7,152.3,70.2,228.5c44.3,143.6,88.7,287.3,133,431
		c40,129.6,53.1,266.8,86.3,398.2C-23,891.1-9.4,943.8,18.1,988.2c5.3,8.6,11.1,17,17.5,25.4c0.1,0.1,0.1,0.2,0.2,0.2
		c30.1,39.4,71.8,74.9,118.6,92.3c2.4,0.8,4.8,1.6,7.2,2.5c2.5,0.8,4.9,1.4,7.4,2.2c2.2,0.6,4.4,1.1,6.6,1.8
		c0.3,0.1,0.6,0.1,0.9,0.2c3.8,0.9,7.6,1.8,11.3,2.4c3,0.5,6,0.9,8.9,1.3c3.3,0.3,6.5,0.6,9.7,0.8c2.9,0.2,5.8,0.3,8.7,0.3h1.4
		c2.6,0,5.2-0.1,7.6-0.3c5.5-0.2,10.7-0.8,15.8-1.8c1.5-0.3,3.1-0.5,4.6-0.8c2-0.4,3.9-0.8,5.9-1.3c2.4-0.6,4.7-1.2,7.1-2
		c47.9-13.8,84.7-50.4,111-93.4c15.8-25.8,28.5-53.3,39.5-81.4c28-70.8,46.4-145.6,79.3-214.7c36.8-77.1,103-179.5,196.9-177.8
		c3,0,5.9,0.2,8.9,0.4c1.4,0.1,3,0.3,4.4,0.5c7.5,0.8,15.3,2.5,23.3,4.8c76.4,22.4,118.9,92.8,153.1,163.8
		c14.1,29.4,26.8,58.8,39.9,85.2c75,150.6,144.9,304.3,223.7,452.7c21.1,39.6,48.1,75,83,99c0.1,0.1,0.3,0.2,0.4,0.3
		c11.6,8,24.1,15.5,37.5,21c15.9,6.7,33,10.9,51.7,10.5c0.9,0,1.8,0,2.7-0.1c0.2-0.1,0.3-0.1,0.4,0c55-2.1,106.4-25.9,149.5-59.6
		c8.5-6.5,16.5-13.4,24.2-20.6c1.9-1.8,3.7-3.5,5.6-5.5c0.1,0,0.1,0,0.1-0.1C1611.5,1138,2209.1-12.3,2268.5-127.9
		c4.1-8.1,7.5-14.9,10.3-20.3c0.6-1,1.1-2.1,1.7-3.1c24.6-48.1,49.4-96.4,74.1-144.6c20.8-40.4,42.2-79.1,59.7-119.3
		c1.6-3.9,3.4-7.8,4.9-11.9c2.3-5.3,4.3-10.5,6.3-15.9c0.7-1.9,1.4-3.7,2.1-5.6c1-2.6,1.9-5.1,2.8-7.6c7.9-22.8,14.2-46.5,18.1-71.7
		C2453.9-561.6,2454.9-595.8,2451.2-629.3z M790.9,292.2l-217.1-1.4c-73.3-0.5-119-33.1-81.7-96.2l156.7-335.8
		c19.6-33.5,51.3-33.3,70.4,0.5l154.4,338C910,260.7,864.1,292.7,790.9,292.2z"/>
	<path class="st7" d="M1509.4,1028.7c-9.2-24.1-20.2-48.5-31.9-73.4c-29.9-64.7-59.9-129.5-89.9-194.2c-1-2.2-2.1-4.4-3.1-6.6
		c-46.9-101.2-93.8-202.5-140.8-303.9c-65.8-141.9-131.5-283.8-197.2-425.8c-2.4-5.4-4.8-10.6-7.3-16
		c-43.9-94.4-86.9-189.3-132.4-283c-34.1-70.3-60.9-149.7-117.4-206c-64.7-64.6-158.6-53.5-220.3,8.6
		c-62.8,63.3-85.2,154.3-115.6,235.4C402.6-101.5,347.8,31.3,291,163.2C211.2,348.6,127,532.1,44.1,716.6
		c-19.3,43-38.8,86.5-46.9,133c-5.9,35-2.6,70,8.1,102.8c7.1,21.7,17.3,42.3,30.2,61.1c0.1,0.1,0.1,0.2,0.2,0.2
		c28.7,41.9,70.3,75.2,118.6,92.3c2.4,0.8,4.8,1.6,7.2,2.5c2.5,0.8,4.9,1.4,7.4,2.2c2.2,0.6,4.4,1.1,6.6,1.8
		c0.3,0.1,0.6,0.1,0.9,0.2c3.8,0.9,7.6,1.8,11.3,2.4c3,0.5,6,0.9,8.9,1.3c3.3,0.3,6.5,0.6,9.7,0.8c2.9,0.2,5.8,0.3,8.7,0.3h1.4
		c2.6,0,5.2-0.1,7.6-0.3c5.5-0.2,10.7-0.8,15.8-1.8c1.5-0.3,3.1-0.5,4.6-0.8c2-0.4,3.9-0.8,5.9-1.3c2.4-0.6,4.7-1.2,7.1-2
		c72.2-22.5,116.6-101.7,145.8-175.4c27.9-70.9,46.3-145.6,79.3-214.8c36.7-77.1,102.9-179.5,196.8-177.8c4.5,0.1,9.1,0.4,13.7,1
		c1.4,0.1,3,0.3,4.4,0.5c6.1,0.9,12.2,2.4,18.5,4.2c76.4,22.5,118.9,92.8,153.1,163.8c14.1,29.4,26.9,58.9,40,85.2
		c74.9,150.6,144.8,304.4,223.6,452.7c21.1,39.6,48.1,75.1,83,99.1c1.5,1,3.1,2.1,4.6,3c11.8,7.7,24.4,14.1,38.1,18.9
		c14.4,5.3,30.1,8.6,46.8,9.9c2.6,0.2,5.1,0.3,7.5,0.5c0.2-0.1,0.3-0.1,0.4,0c58.4,2.3,110.5-20.9,149.5-59.6
		c9.8-9.7,18.8-20.4,26.8-32c1.3-2,2.7-3.9,3.9-5.9c8.9-13.4,16.4-27.9,22.5-43.1c3.1-7.5,5.7-15.1,7.9-22.4
		C1544.9,1151,1532.9,1090.5,1509.4,1028.7z M573.8,290.7c-73.3-0.5-119-33.1-81.7-96.2l156.7-335.8c19.6-33.5,51.3-33.3,70.4,0.5
		l154.4,338c36.3,63.5-9.6,95.5-82.8,95L573.8,290.7z"/>
</g>
<g id="Camada_2_cópia" class="st0">
	<path class="st8" d="M2277.1-877.6c-114.3-48.9-213.3-7.7-243.9,7.6c-192,96.2-247.4,331.7-341.3,505.7
		c-77.9,144.5-182.6,326.5-375.3,363c-217,41.1-333.3-351.6-431.8-592.3c-66.4-162.2-144.4-160.2-180.9-159.9
		c-42.1,0.2-82.3,20.9-117.4,52.1C470-598,383.8-42.3,231.5-28.1c-131.9,12.2-189-82.4-388.7-517.6c-30.2-65.9-73.4-87-106.5-86.4
		c-64.7,1.1-102.9,53.7-119.3,106.6c-32,103,48,285.1,68.5,344.5c13.9,40,245.7,890.5,278.9,1021.9c5.3,21.3,28.6,172.5,151.5,246.3
		c126,75.8,236.2-45.4,252.6-69.3C437,918.5,496.3,542.7,684.3,544c103,0.7,163.2,108.2,229.6,254.8
		c70.5,155.5,156.9,334.3,223.7,452.7c9,16,68,121.5,151.4,130.9c110.6,12.5,198-75.3,228.8-122.5
		c156.6-240.6,276.4-482.9,531.4-967.6c219.5-417.2,389.7-751.4,391.5-763.1C2446-504.6,2519.4-773.9,2277.1-877.6z M790.9,292.2
		l-217.1-1.4c-73.3-0.5-119-33.1-81.7-96.2l156.7-335.8c19.6-33.5,51.3-33.3,70.4,0.5l154.4,338C910,260.7,864.1,292.7,790.9,292.2z
		"/>
	<path class="st2" d="M1509.4,1028.7c-9.2-24.1-20.2-48.5-31.9-73.4c-29.9-64.7-59.9-129.5-89.9-194.2c-1-2.2-2.1-4.4-3.1-6.6
		c-46.9-101.2-93.8-202.5-140.8-303.9c-65.8-141.9-131.5-283.8-197.2-425.8c-2.4-5.4-4.8-10.6-7.3-16
		c-43.9-94.4-86.9-189.3-132.4-283c-34.1-70.3-60.9-149.7-117.4-206c-64.7-64.6-158.6-53.5-220.3,8.6
		c-62.8,63.3-85.2,154.3-115.6,235.4C402.6-101.5,347.8,31.3,291,163.2C211.2,348.6,127,532.1,44.1,716.6
		c-19.3,43-38.8,86.5-46.9,133c-5.9,35-2.6,70,8.1,102.8c7.1,21.7,17.3,42.3,30.2,61.1c0.1,0.1,0.1,0.2,0.2,0.2
		c28.7,41.9,70.3,75.2,118.6,92.3c2.4,0.8,4.8,1.6,7.2,2.5c2.5,0.8,4.9,1.4,7.4,2.2c2.2,0.6,4.4,1.1,6.6,1.8
		c0.3,0.1,0.6,0.1,0.9,0.2c3.8,0.9,7.6,1.8,11.3,2.4c3,0.5,6,0.9,8.9,1.3c3.3,0.3,6.5,0.6,9.7,0.8c2.9,0.2,5.8,0.3,8.7,0.3h1.4
		c2.6,0,5.2-0.1,7.6-0.3c5.5-0.2,10.7-0.8,15.8-1.8c1.5-0.3,3.1-0.5,4.6-0.8c2-0.4,3.9-0.8,5.9-1.3c2.4-0.6,4.7-1.2,7.1-2
		c72.2-22.5,116.6-101.7,145.8-175.4c27.9-70.9,46.3-145.6,79.3-214.8c36.7-77.1,102.9-179.5,196.8-177.8c4.5,0.1,9.1,0.4,13.7,1
		c1.4,0.1,3,0.3,4.4,0.5c6.1,0.9,12.2,2.4,18.5,4.2c76.4,22.5,118.9,92.8,153.1,163.8c14.1,29.4,26.9,58.9,40,85.2
		c74.9,150.6,144.8,304.4,223.6,452.7c21.1,39.6,48.1,75.1,83,99.1c1.5,1,3.1,2.1,4.6,3c11.8,7.7,24.4,14.1,38.1,18.9
		c14.4,5.3,30.1,8.6,46.8,9.9c2.6,0.2,5.1,0.3,7.5,0.5c0.2-0.1,0.3-0.1,0.4,0c58.4,2.3,110.5-20.9,149.5-59.6
		c9.8-9.7,18.8-20.4,26.8-32c1.3-2,2.7-3.9,3.9-5.9c8.9-13.4,16.4-27.9,22.5-43.1c3.1-7.5,5.7-15.1,7.9-22.4
		C1544.9,1151,1532.9,1090.5,1509.4,1028.7z M573.8,290.7c-73.3-0.5-119-33.1-81.7-96.2l156.7-335.8c19.6-33.5,51.3-33.3,70.4,0.5
		l154.4,338c36.3,63.5-9.6,95.5-82.8,95L573.8,290.7z"/>
</g>
<g id="Camada_4" class="st0">
</g>
<g id="Camada_4_cópia">
	<g>
		<path class="st10" d="M46.8,14.9c-1.7-0.7-3.2-0.1-3.7,0.1c-2.9,1.5-3.9,5-5.2,7.7c-0.5,0.9-0.9,2-1.5,2.9
			c-0.9,1.4-2.1,2.5-4.2,2.6c-3.3,0.2-5.2-5.3-6.6-9c-0.7-2-1.5-2.5-2.7-2.5c-1,0-1.7,0.6-2,0.8c-2,1.9-2.9,9.7-5.2,10.2
			c-2,0.5-2.9-1.2-5.9-7.9c-0.5-1-1.1-1.3-1.6-1.3c-1.1,0-1.7,0.8-1.8,1.6c-0.2,2,4.7,18.8,5.3,20.7c0.1,0.2,0.3,1.4,0.9,2.4
			c0.3,0.6,0.8,1.1,1.3,1.3c1.9,0.9,3.5-0.4,4-1.3c0.7-1.7,1.8-6.9,4.7-6.9c1.6,0,2.4,1.7,3.5,3.9c1.2,2.3,2.4,5.1,3.4,6.9
			c0,0,0,0.1,0.1,0.1c0.5,0.8,1.1,1.8,2.3,1.9c1.8,0.2,2.7-0.9,3.2-1.6c0.1-0.1,0.1-0.2,0.2-0.3c2.2-3.7,4.2-7.3,8.1-14.7
			c3.3-6.3,5.4-10.3,5.9-11.6C49.7,19.9,50.5,16.5,46.8,14.9z M24.3,32.6l-3.3,0c-1.1,0-1.8-0.5-1.2-1.5l2.4-5.1
			c0.3-0.5,0.8-0.5,1.1,0l2.3,5.1C26.1,32.2,25.4,32.6,24.3,32.6z"/>
		<path class="st17" d="M49.3,21.1c-0.5,1.3-2.6,5.2-5.9,11.6c-3.9,7.4-5.8,11-8.1,14.7c-0.1,0.1-0.1,0.2-0.2,0.3
			c-0.5,0.7-1.4,1.8-3.2,1.6c-1.2-0.1-1.9-1.1-2.3-1.9c0.4-1.4,0.8-2.9,1.3-4.4c0,0,0-0.1,0-0.1c1.6-5.4,3.5-11.4,5.6-17.2
			c0.6-0.9,1-2,1.5-2.9c1.3-2.7,2.3-6.2,5.2-7.7c0.5-0.2,2-0.9,3.7-0.1C50.5,16.5,49.7,19.9,49.3,21.1z"/>
		<g>
			<path class="st10" d="M32.3,49.1c-0.1,0-0.2,0-0.4,0c-1.2-0.1-1.8-1.1-2.3-2c-0.6-1-1.2-2.4-1.9-3.8c-0.5-1-1-2.1-1.5-3.1
				L26.1,40c-1.1-2-1.9-3.7-3.4-3.7c-2.4,0-3.5,3.4-4.3,5.7c-0.2,0.5-0.3,1-0.5,1.3c-0.3,0.6-1.3,1.6-2.6,1.6
				c-0.4,0-0.8-0.1-1.3-0.3c-0.5-0.2-0.9-0.7-1.3-1.3c-0.5-0.8-0.3-1.3,0-2.1c0,0,1.9-4.6,3.1-7.5c2-4.8,4.2-10.3,4.6-11.2
				c0.7-1.6,1.3-2.1,2.4-2.2l0.1,0c1.3,0,1.8,0.9,2.5,2.6c1.5,4,8.6,20.6,9.4,22.6c0.3,0.7,0.6,1.3,0.1,2.1
				C34.3,48.6,33.4,49.1,32.3,49.1L32.3,49.1z M22.6,25.6c-0.2,0-0.5,0.2-0.6,0.4l-2.4,5.1c-0.3,0.5-0.2,0.8-0.1,1
				c0.2,0.4,0.7,0.6,1.4,0.6l3.3,0c0.7,0,1.2-0.2,1.4-0.5c0.1-0.2,0.2-0.5-0.1-1L23.3,26C23.1,25.7,22.9,25.6,22.6,25.6z"/>
			<path class="st11" d="M23,20.4c1.2,0,1.8,0.8,2.4,2.5c1.5,4,8.6,20.6,9.5,22.6c0.3,0.7,0.6,1.2,0.1,2c-0.7,1-1.6,1.5-2.6,1.5
				c-0.1,0-0.2,0-0.4,0c-1.1-0.1-1.8-1-2.2-1.9c-0.6-1-1.2-2.4-1.9-3.8c-0.5-1-1-2.1-1.5-3.1L26.2,40c-1.1-2.1-1.9-3.7-3.6-3.7
				c-2.4,0-3.6,3.5-4.4,5.7c-0.2,0.5-0.3,1-0.5,1.3c-0.3,0.6-1.2,1.5-2.5,1.5c-0.4,0-0.8-0.1-1.2-0.3c-0.5-0.2-0.9-0.6-1.3-1.3
				c-0.5-0.8-0.3-1.2,0-2L13,41c0.6-1.6,1.7-4.2,2.9-7.1c2-4.9,4.3-10.4,4.7-11.4c0.7-1.5,1.3-2.1,2.3-2.1L23,20.4 M24.3,32.8
				L24.3,32.8c0.7,0,1.3-0.2,1.5-0.6c0.1-0.2,0.2-0.6-0.1-1.1L23.4,26c-0.2-0.3-0.4-0.5-0.7-0.5c-0.3,0-0.5,0.2-0.7,0.5l-2.4,5.1
				c-0.3,0.5-0.2,0.9-0.1,1.1c0.2,0.4,0.8,0.6,1.5,0.6L24.3,32.8L24.3,32.8 M23,20.2c0,0-0.1,0-0.1,0c-1.2,0-1.8,0.7-2.4,2.2
				c-0.6,1.5-5.9,14.2-7.6,18.4c-0.4,1-0.7,1.5-0.2,2.4c0.3,0.6,0.8,1.1,1.3,1.3c0.5,0.2,0.9,0.3,1.3,0.3c1.3,0,2.3-0.9,2.7-1.6
				c0.7-1.7,1.8-6.9,4.7-6.9c0,0,0,0,0,0c1.6,0,2.4,1.7,3.5,3.9c1.2,2.3,2.4,5.1,3.4,6.9c0.5,0.8,1.1,1.9,2.4,2c0.1,0,0.3,0,0.4,0
				c1.5,0,2.4-0.9,2.8-1.6c0.5-0.8,0.3-1.4-0.1-2.2c-0.9-2.1-8-18.6-9.4-22.6C25,21.2,24.4,20.2,23,20.2L23,20.2z M24.3,32.6
				C24.3,32.6,24.3,32.6,24.3,32.6l-3.3,0c-1.1,0-1.8-0.5-1.2-1.5l2.4-5.1c0.1-0.3,0.3-0.4,0.5-0.4c0.2,0,0.4,0.1,0.5,0.4l2.3,5.1
				C26.1,32.2,25.4,32.6,24.3,32.6L24.3,32.6z"/>
		</g>
		<g class="st0">
			<g class="st9">
				<path class="st11" d="M53.5,19.1C53.5,19.1,53.4,19.1,53.5,19.1C53.4,19.1,53.4,19.1,53.5,19.1l-0.1-2.8c0,0,0-0.1,0-0.1
					c0,0,0,0,0.1,0h1c0.3,0,0.6,0.1,0.7,0.2c0.2,0.1,0.3,0.4,0.3,0.6c0,0.2-0.1,0.4-0.2,0.5c-0.1,0.1-0.3,0.2-0.4,0.3l0.6,1.1
					c0,0,0,0,0,0c0,0,0,0,0,0.1c0,0,0,0-0.1,0h-0.2c0,0-0.1,0-0.1,0c0,0,0,0-0.1-0.1L54.5,18h-0.7v1.1c0,0,0,0.1,0,0.1
					c0,0,0,0-0.1,0H53.5z M53.8,17.6h0.7c0.2,0,0.4,0,0.5-0.1c0.1-0.1,0.2-0.2,0.2-0.4c0-0.2-0.1-0.3-0.2-0.4
					c-0.1-0.1-0.3-0.1-0.5-0.1h-0.7V17.6z"/>
			</g>
			<g class="st9">
				<path class="st11" d="M54.5,15.2c1.4,0,2.5,1.1,2.5,2.5c0,1.4-1.1,2.5-2.5,2.5S52,19.1,52,17.7C52,16.3,53.1,15.2,54.5,15.2
					 M54.5,14.8c-1.6,0-2.9,1.3-2.9,2.9s1.3,2.9,2.9,2.9s2.9-1.3,2.9-2.9S56.1,14.8,54.5,14.8L54.5,14.8z"/>
			</g>
		</g>
		<text transform="matrix(1 0 0 1 4.9966 48.5618)" class="st19 st20 st21">Work Attack</text>
	</g>
</g>
</svg>
